<?xml version="1.0" encoding="utf-8"?>
<!-- Generator: Adobe Illustrator 23.0.3, SVG Export Plug-In . SVG Version: 6.00 Build 0)  -->
<svg version="1.1" id="Layer_1" xmlns="http://www.w3.org/2000/svg" xmlns:xlink="http://www.w3.org/1999/xlink" x="0px" y="0px"
	 viewBox="0 0 200 60" style="enable-background:new 0 0 200 60;" xml:space="preserve">
<style type="text/css">
	.st0{fill:#494949;}
	.st1{display:none;}
	.st2{display:inline;}
</style>
<g>
	<g>
		<g>
			<g>
				<path class="st0" d="M44,24.7v17H26.7c-4.7,0-8.8-1.7-12.2-5s-5.1-7.3-5.1-12s1.7-8.7,5.1-12.1c3.4-3.3,7.4-5,12.2-5
					c4.7,0,8.8,1.7,12.2,5C42.3,15.9,44,20,44,24.7z M36.8,34.9V24.7c0-2.8-1-5.2-2.9-7.3c-1.9-2-4.3-3-7.1-3s-5.2,1-7.1,3
					s-2.9,4.4-2.9,7.3c0,2.8,1,5.2,2.9,7.2s4.3,3,7.1,3C26.8,34.9,36.8,34.9,36.8,34.9z"/>
			</g>
			<g>
				<path class="st0" d="M52.4,48.1c-1.4,1.4-3.1,2.1-5,2.1V24.7c0-4.7,1.7-8.7,5.1-12.1c3.4-3.3,7.4-5,12.2-5c4.7,0,8.8,1.7,12.2,5
					C80.3,15.9,82,20,82,24.7s-1.7,8.7-5.1,12s-7.5,5-12.2,5H54.5V43C54.5,45,53.8,46.7,52.4,48.1z M64.6,34.9c2.8,0,5.2-1,7.1-3
					s2.9-4.4,2.9-7.2s-1-5.2-2.9-7.3c-1.9-2-4.3-3-7.1-3c-2.8,0-5.2,1-7.1,3c-1.9,2-2.9,4.4-2.9,7.3v10.2H64.6z"/>
			</g>
			<g>
				<path class="st0" d="M101.8,41.6c-4.7,0-8.8-1.7-12.1-5c-3.4-3.3-5.1-7.3-5.1-12s1.7-8.7,5.1-12.1c3.4-3.3,7.4-5,12.1-5h10
					c0,1.9-0.7,3.5-2,4.8s-2.9,2-4.8,2h-3.3c-2.8,0-5.2,1-7.2,3s-3,4.4-3,7.3c0,2.8,1,5.2,3,7.2s4.4,3,7.2,3h3.3
					c1.9,0,3.5,0.7,4.8,2s2,2.9,2,4.8H101.8z"/>
			</g>
		</g>
		<g>
			<g>
				<path class="st0" d="M120.3,34.5c0,2-0.7,3.6-2.1,5s-3.1,2.1-5,2.1v-17c0-4.7,1.7-8.7,5.1-12s7.4-5,12.2-5h10
					c0,1.9-0.7,3.5-2,4.8s-2.9,2-4.8,2h-3.3c-2.8,0-5.2,1-7.2,3s-2.9,4.4-2.9,7.2C120.3,24.6,120.3,34.5,120.3,34.5z M125.6,22.2
					c-0.6,0.7-1,1.5-1,2.4s0.3,1.7,1,2.4c0.7,0.6,1.4,1,2.4,1h5.7c1.9,0,3.5-0.7,4.8-2s2-2.9,2-4.8H128
					C127,21.2,126.2,21.5,125.6,22.2z"/>
			</g>
		</g>
		<g>
			<g>
				<path class="st0" d="M145,20.9c0-3.7,1.3-6.8,4-9.4s5.8-3.9,9.6-3.9h9.8c0,1.9-0.7,3.5-2,4.8s-3,2-4.9,2H160
					c-2.2,0-4.1,0.8-5.6,2.4s-2.3,3.5-2.3,5.7v5.9c0,3.7-1.3,6.8-4,9.4c-2.6,2.6-5.8,3.9-9.5,3.9h-9.8c0-1.9,0.7-3.5,2-4.8
					s2.9-2,4.8-2h1.5c2.2,0,4.1-0.8,5.6-2.4c1.5-1.6,2.3-3.5,2.3-5.7V20.9L145,20.9z"/>
			</g>
		</g>
		<g>
			<g>
				<path class="st0" d="M166.4,20.9c0-3.7,1.3-6.8,4-9.4s5.8-3.9,9.6-3.9h9.8c0,1.9-0.7,3.5-2,4.8s-3,2-4.9,2h-1.5
					c-2.2,0-4.1,0.8-5.6,2.4s-2.3,3.5-2.3,5.7v5.9c0,3.7-1.3,6.8-4,9.4c-2.6,2.6-5.8,3.9-9.5,3.9h-9.8c0-1.9,0.7-3.5,2-4.8
					s2.9-2,4.8-2h1.5c2.2,0,4.1-0.8,5.6-2.4c1.5-1.6,2.3-3.5,2.3-5.7L166.4,20.9L166.4,20.9z"/>
			</g>
		</g>
	</g>
	<g class="st1">
		<g class="st2">
			<g>
				<path id="SVGID_1_" class="st0" d="M109.3,17.1c-1.1,0.9-2.2,1.8-3.4,2.7l-0.1,0.1l2-0.2c0,0.2,0,0.3,0,0.5c-0.1,1-0.5,2-1,3
					c-1.1,2.3-2.7,4.3-4.4,6.1c-3.7,3.8-8,6.7-12.8,9c-2.3,1.1-4.7,2-7.3,2.3c-1.8,0.2-3.6,0.2-5.4-0.5v0.1c0.6,1.1,1.4,1.8,2.6,2.2
					c1.1,0.4,2.2,0.4,3.3,0.3c1.4-0.1,2.8-0.4,4.1-0.8c1.9-0.6,3.7-1.3,5.5-2.2c3.8-1.8,7.3-3.8,10.4-6.6c2.7-2.4,5.1-5.1,6.9-8.2
					c0.9-1.5,1.6-3,1.9-4.7c0,0,0-0.1,0.1-0.1c0.4,0.2,0.9,0.3,1.3,0.5c-0.7-1-1.4-2-2.4-2.8c-0.3-0.2-0.6-0.4-1-0.7
					c-0.1,0-0.1-0.1-0.2-0.1C109.5,17,109.4,17,109.3,17.1"/>
			</g>
		</g>
		<g class="st2">
			<g>
				<path id="SVGID_3_" class="st0" d="M102.2,20.9c-0.8,0.6-1.7,1.3-2.5,1.9l-0.1,0.1l1.4-0.1c0,0.1,0,0.2,0,0.4
					c-0.1,0.7-0.3,1.3-0.6,1.9c-0.9,1.8-2.1,3.3-3.6,4.7c-2.2,2.2-4.7,3.9-7.5,5.3c-2.2,1.2-4.5,2.1-7,2.5c-1.5,0.2-3,0.2-4.5-0.4
					v0.1c0,0.1,0.1,0.2,0.1,0.2c0.6,1.1,1.7,1.5,2.9,1.7c1.5,0.2,2.9-0.1,4.3-0.5c2-0.6,4-1.4,5.9-2.3c4.5-2.1,8.1-5.2,10.9-9.2
					c0.9-1.3,1.7-2.6,2-4.1c0,0,0,0,0-0.1c0.3,0.1,0.6,0.2,1,0.4c0-0.1-0.1-0.1-0.1-0.2c-0.4-0.5-0.8-1-1.2-1.5
					c-0.3-0.3-0.7-0.6-1-0.9c-0.1,0-0.1-0.1-0.2-0.1C102.4,20.8,102.3,20.9,102.2,20.9"/>
			</g>
		</g>
		<g class="st2">
			<g>
				<path id="SVGID_5_" class="st0" d="M96.5,24c-0.6,0.4-1.1,0.8-1.7,1.2l-0.1,0.1l1.1-0.1c-0.1,0.4-0.2,0.8-0.4,1.2
					c-0.4,1-1,1.9-1.8,2.7c-2.5,2.7-5.6,4.7-9.1,5.9c-1.7,0.6-3.4,0.9-5.2,0.3c0.3,0.6,0.7,1,1.4,1.2c0.6,0.2,1.2,0.2,1.8,0.2
					c1-0.1,2-0.4,3-0.7c2.6-0.9,5.1-2.1,7.2-3.8c2.3-1.9,4.2-3.9,5.1-6.7c0.2,0.1,0.4,0.1,0.6,0.2c-0.1-0.2-0.2-0.4-0.3-0.5
					c-0.4-0.4-0.7-0.9-1.2-1.2c-0.1,0-0.1-0.1-0.2-0.1C96.6,24,96.6,24,96.5,24"/>
			</g>
		</g>
	</g>
	<g class="st1">
		<g class="st2">
			<g>
				<path id="SVGID_7_" class="st0" d="M109.3,17.1c-1.1,0.9-2.2,1.8-3.4,2.7l-0.1,0.1l2-0.2c0,0.2,0,0.3,0,0.5c-0.1,1-0.5,2-1,3
					c-1.1,2.3-2.7,4.3-4.4,6.1c-3.7,3.8-8,6.7-12.8,9c-2.3,1.1-4.7,2-7.3,2.3c-1.8,0.2-3.6,0.2-5.4-0.5v0.1c0.6,1.1,1.4,1.8,2.6,2.2
					c1.1,0.4,2.2,0.4,3.3,0.3c1.4-0.1,2.8-0.4,4.1-0.8c1.9-0.6,3.7-1.3,5.5-2.2c3.8-1.8,7.3-3.8,10.4-6.6c2.7-2.4,5.1-5.1,6.9-8.2
					c0.9-1.5,1.6-3,1.9-4.7c0,0,0-0.1,0.1-0.1c0.4,0.2,0.9,0.3,1.3,0.5c-0.7-1-1.4-2-2.4-2.8c-0.3-0.2-0.6-0.4-1-0.7
					c-0.1,0-0.1-0.1-0.2-0.1C109.5,17,109.4,17,109.3,17.1"/>
			</g>
		</g>
		<g class="st2">
			<g>
				<path id="SVGID_9_" class="st0" d="M102.2,20.9c-0.8,0.6-1.7,1.3-2.5,1.9l-0.1,0.1l1.4-0.1c0,0.1,0,0.2,0,0.4
					c-0.1,0.7-0.3,1.3-0.6,1.9c-0.9,1.8-2.1,3.3-3.6,4.7c-2.2,2.2-4.7,3.9-7.5,5.3c-2.2,1.2-4.5,2.1-7,2.5c-1.5,0.2-3,0.2-4.5-0.4
					v0.1c0,0.1,0.1,0.2,0.1,0.2c0.6,1.1,1.7,1.5,2.9,1.7c1.5,0.2,2.9-0.1,4.3-0.5c2-0.6,4-1.4,5.9-2.3c4.5-2.1,8.1-5.2,10.9-9.2
					c0.9-1.3,1.7-2.6,2-4.1c0,0,0,0,0-0.1c0.3,0.1,0.6,0.2,1,0.4c0-0.1-0.1-0.1-0.1-0.2c-0.4-0.5-0.8-1-1.2-1.5
					c-0.3-0.3-0.7-0.6-1-0.9c-0.1,0-0.1-0.1-0.2-0.1C102.4,20.8,102.3,20.9,102.2,20.9"/>
			</g>
		</g>
		<g class="st2">
			<g>
				<path id="SVGID_11_" class="st0" d="M96.5,24c-0.6,0.4-1.1,0.8-1.7,1.2l-0.1,0.1l1.1-0.1c-0.1,0.4-0.2,0.8-0.4,1.2
					c-0.4,1-1,1.9-1.8,2.7c-2.5,2.7-5.6,4.7-9.1,5.9c-1.7,0.6-3.4,0.9-5.2,0.3c0.3,0.6,0.7,1,1.4,1.2c0.6,0.2,1.2,0.2,1.8,0.2
					c1-0.1,2-0.4,3-0.7c2.6-0.9,5.1-2.1,7.2-3.8c2.3-1.9,4.2-3.9,5.1-6.7c0.2,0.1,0.4,0.1,0.6,0.2c-0.1-0.2-0.2-0.4-0.3-0.5
					c-0.4-0.4-0.7-0.9-1.2-1.2c-0.1,0-0.1-0.1-0.2-0.1C96.6,24,96.6,24,96.5,24"/>
			</g>
		</g>
	</g>
	<g>
		<path class="st0" d="M60.3,48.8h-1.8l-0.3,0.9h-0.7l1.5-4.3h0.8l1.5,4.3h-0.7L60.3,48.8z M60.1,48.2l-0.7-2l-0.7,2H60.1z"/>
		<path class="st0" d="M64.5,46.3c0.2,0.1,0.4,0.3,0.5,0.5s0.2,0.5,0.2,0.8v2h-0.7v-1.9c0-0.3-0.1-0.5-0.2-0.7s-0.4-0.2-0.6-0.2
			c-0.3,0-0.5,0.1-0.6,0.2c-0.2,0.2-0.2,0.4-0.2,0.7v1.9h-0.7v-3.4h0.7v0.4c0.1-0.1,0.3-0.3,0.4-0.3c0.2-0.1,0.4-0.1,0.6-0.1
			C64.1,46.2,64.3,46.2,64.5,46.3z"/>
		<path class="st0" d="M66.1,47c0.1-0.3,0.3-0.5,0.6-0.6c0.2-0.1,0.5-0.2,0.8-0.2c0.2,0,0.4,0,0.7,0.1c0.2,0.1,0.4,0.2,0.5,0.4v-1.6
			h0.7v4.6h-0.7v-0.5c-0.1,0.2-0.3,0.3-0.5,0.4s-0.4,0.2-0.7,0.2c-0.3,0-0.6-0.1-0.8-0.2c-0.2-0.2-0.4-0.4-0.6-0.6
			c-0.1-0.3-0.2-0.6-0.2-0.9S65.9,47.3,66.1,47z M68.5,47.3c-0.1-0.2-0.2-0.3-0.4-0.4c-0.2-0.1-0.3-0.1-0.5-0.1s-0.4,0-0.5,0.1
			c-0.2,0.1-0.3,0.2-0.4,0.4s-0.1,0.4-0.1,0.6s0,0.4,0.1,0.6c0.1,0.2,0.2,0.3,0.4,0.4c0.2,0.1,0.3,0.1,0.5,0.1s0.4,0,0.5-0.1
			c0.2-0.1,0.3-0.2,0.4-0.4s0.1-0.4,0.1-0.6C68.7,47.7,68.6,47.5,68.5,47.3z"/>
		<path class="st0" d="M72.8,46.3c0.2,0.1,0.4,0.3,0.5,0.5s0.2,0.5,0.2,0.8v2h-0.7v-1.9c0-0.3-0.1-0.5-0.2-0.7s-0.4-0.2-0.6-0.2
			c-0.3,0-0.5,0.1-0.6,0.2c-0.2,0.2-0.2,0.4-0.2,0.7v1.9h-0.7V45H71v1.6c0.1-0.1,0.3-0.3,0.5-0.3c0.2-0.1,0.4-0.1,0.6-0.1
			C72.3,46.2,72.6,46.2,72.8,46.3z"/>
		<path class="st0" d="M75.4,46.3c0.2-0.1,0.4-0.1,0.6-0.1v0.7h-0.2c-0.3,0-0.5,0.1-0.6,0.2S75,47.5,75,47.9v1.8h-0.7v-3.4H75v0.5
			C75.1,46.6,75.3,46.4,75.4,46.3z"/>
		<path class="st0" d="M76.7,47c0.1-0.3,0.3-0.5,0.6-0.6c0.2-0.1,0.5-0.2,0.8-0.2s0.5,0.1,0.7,0.2s0.4,0.2,0.5,0.4v-0.5H80v3.4h-0.7
			v-0.5c-0.1,0.2-0.3,0.3-0.5,0.4s-0.4,0.2-0.7,0.2c-0.3,0-0.6-0.1-0.8-0.2c-0.2-0.2-0.4-0.4-0.6-0.6c-0.1-0.3-0.2-0.6-0.2-0.9
			S76.5,47.3,76.7,47z M79.1,47.3c-0.1-0.2-0.2-0.3-0.4-0.4c-0.2-0.1-0.3-0.1-0.5-0.1s-0.4,0-0.5,0.1c-0.2,0.1-0.3,0.2-0.4,0.4
			s-0.1,0.4-0.1,0.6s0,0.4,0.1,0.6c0.1,0.2,0.2,0.3,0.4,0.4S78,49,78.2,49s0.4,0,0.5-0.1c0.2-0.1,0.3-0.2,0.4-0.4s0.1-0.4,0.1-0.6
			C79.3,47.7,79.2,47.5,79.1,47.3z"/>
		<path class="st0" d="M85.4,47.2c-0.1,0.2-0.3,0.4-0.5,0.5s-0.5,0.2-0.9,0.2h-0.8v1.7h-0.7v-4.3H84c0.3,0,0.6,0.1,0.8,0.2
			c0.2,0.1,0.4,0.3,0.5,0.5s0.2,0.4,0.2,0.7C85.5,46.8,85.5,47.1,85.4,47.2z M84.6,47.1c0.1-0.1,0.2-0.3,0.2-0.5
			c0-0.5-0.3-0.7-0.8-0.7h-0.8v1.4H84C84.3,47.3,84.5,47.3,84.6,47.1z"/>
		<path class="st0" d="M87.3,46.3c0.2-0.1,0.4-0.1,0.6-0.1v0.7h-0.2c-0.3,0-0.5,0.1-0.6,0.2s-0.2,0.4-0.2,0.7v1.8h-0.7v-3.4h0.7v0.5
			C87,46.6,87.1,46.4,87.3,46.3z"/>
		<path class="st0" d="M88.6,47c0.1-0.3,0.3-0.5,0.6-0.6c0.2-0.1,0.5-0.2,0.8-0.2s0.5,0.1,0.7,0.2s0.4,0.2,0.5,0.4v-0.5h0.7v3.4
			h-0.7v-0.5c-0.1,0.2-0.3,0.3-0.5,0.4s-0.4,0.2-0.7,0.2c-0.3,0-0.6-0.1-0.8-0.2c-0.2-0.2-0.4-0.4-0.6-0.6c-0.1-0.3-0.2-0.6-0.2-0.9
			S88.4,47.3,88.6,47z M91,47.3c-0.1-0.2-0.2-0.3-0.4-0.4c-0.2-0.1-0.3-0.1-0.5-0.1s-0.4,0-0.5,0.1c-0.2,0.1-0.3,0.2-0.4,0.4
			s-0.1,0.4-0.1,0.6s0,0.4,0.1,0.6c0.1,0.2,0.2,0.3,0.4,0.4c0.2,0.1,0.3,0.1,0.5,0.1s0.4,0,0.5-0.1c0.2-0.1,0.3-0.2,0.4-0.4
			s0.1-0.4,0.1-0.6S91.1,47.5,91,47.3z"/>
		<path class="st0" d="M92.8,47c0.1-0.3,0.3-0.5,0.6-0.6c0.2-0.1,0.5-0.2,0.8-0.2c0.2,0,0.4,0,0.7,0.1c0.2,0.1,0.4,0.2,0.5,0.4v-1.6
			H96v4.6h-0.7v-0.5c-0.1,0.2-0.3,0.3-0.5,0.4s-0.4,0.2-0.7,0.2c-0.3,0-0.6-0.1-0.8-0.2c-0.2-0.2-0.4-0.4-0.6-0.6
			c-0.1-0.3-0.2-0.6-0.2-0.9S92.6,47.3,92.8,47z M95.2,47.3c-0.1-0.2-0.2-0.3-0.4-0.4c-0.2-0.1-0.3-0.1-0.5-0.1s-0.4,0-0.5,0.1
			c-0.2,0.1-0.3,0.2-0.4,0.4s-0.1,0.4-0.1,0.6s0,0.4,0.1,0.6c0.1,0.2,0.2,0.3,0.4,0.4s0.3,0.1,0.5,0.1s0.4,0,0.5-0.1
			c0.2-0.1,0.3-0.2,0.4-0.4s0.1-0.4,0.1-0.6C95.3,47.7,95.3,47.5,95.2,47.3z"/>
		<path class="st0" d="M100.1,48.2h-2.6c0,0.3,0.1,0.5,0.3,0.7s0.4,0.2,0.7,0.2c0.4,0,0.6-0.2,0.8-0.5h0.8c-0.1,0.3-0.3,0.6-0.6,0.8
			c-0.3,0.2-0.6,0.3-1,0.3c-0.3,0-0.6-0.1-0.9-0.2s-0.5-0.4-0.6-0.6s-0.2-0.6-0.2-0.9c0-0.4,0.1-0.7,0.2-0.9
			c0.1-0.3,0.3-0.5,0.6-0.6c0.3-0.1,0.6-0.2,0.9-0.2s0.6,0.1,0.9,0.2s0.4,0.3,0.6,0.6c0.1,0.3,0.2,0.5,0.2,0.9
			C100.1,48,100.1,48.1,100.1,48.2z M99.4,47.6c0-0.3-0.1-0.5-0.3-0.6c-0.2-0.2-0.4-0.2-0.7-0.2c-0.2,0-0.5,0.1-0.6,0.2
			c-0.2,0.2-0.3,0.4-0.3,0.6H99.4z"/>
		<path class="st0" d="M101.3,49.6c-0.2-0.1-0.4-0.2-0.5-0.4s-0.2-0.4-0.2-0.6h0.7c0,0.1,0.1,0.3,0.2,0.4c0.1,0.1,0.3,0.1,0.5,0.1
			s0.4,0,0.5-0.1s0.2-0.2,0.2-0.3s-0.1-0.2-0.2-0.3s-0.3-0.1-0.6-0.2c-0.3-0.1-0.5-0.1-0.6-0.2c-0.2-0.1-0.3-0.2-0.4-0.3
			s-0.2-0.3-0.2-0.5s0.1-0.3,0.2-0.5s0.3-0.3,0.5-0.4c0.2-0.1,0.4-0.1,0.7-0.1c0.4,0,0.7,0.1,0.9,0.3s0.4,0.5,0.4,0.8h-0.7
			c0-0.2-0.1-0.3-0.2-0.4s-0.3-0.1-0.5-0.1s-0.3,0-0.4,0.1s-0.2,0.2-0.2,0.3s0,0.2,0.1,0.2c0.1,0.1,0.1,0.1,0.2,0.1s0.2,0.1,0.4,0.1
			c0.2,0.1,0.5,0.1,0.6,0.2c0.2,0.1,0.3,0.2,0.4,0.3s0.2,0.3,0.2,0.5s-0.1,0.4-0.2,0.5c-0.1,0.2-0.3,0.3-0.5,0.4
			c-0.2,0.1-0.4,0.1-0.7,0.1C101.8,49.7,101.5,49.7,101.3,49.6z"/>
		<path class="st0" d="M106.6,46.3c0.2,0.1,0.4,0.3,0.5,0.5s0.2,0.5,0.2,0.8v2h-0.7v-1.9c0-0.3-0.1-0.5-0.2-0.7
			c-0.2-0.2-0.4-0.2-0.6-0.2c-0.3,0-0.5,0.1-0.6,0.2c-0.2,0.2-0.2,0.4-0.2,0.7v1.9h-0.7V45h0.7v1.6c0.1-0.1,0.3-0.3,0.5-0.3
			c0.2-0.1,0.4-0.1,0.6-0.1C106.1,46.2,106.4,46.2,106.6,46.3z"/>
		<path class="st0" d="M109.8,46.4c0.2-0.3,0.5-0.6,0.8-0.8s0.7-0.3,1.1-0.3c0.5,0,0.9,0.1,1.2,0.3c0.4,0.2,0.6,0.5,0.8,1h-0.8
			c-0.1-0.2-0.3-0.4-0.5-0.5s-0.4-0.2-0.7-0.2c-0.3,0-0.5,0.1-0.8,0.2c-0.2,0.1-0.4,0.3-0.5,0.6c-0.1,0.2-0.2,0.5-0.2,0.8
			s0.1,0.6,0.2,0.8s0.3,0.4,0.5,0.6c0.2,0.1,0.5,0.2,0.8,0.2s0.5-0.1,0.7-0.2c0.2-0.1,0.4-0.3,0.5-0.5h0.8c-0.2,0.4-0.4,0.7-0.8,1
			c-0.4,0.2-0.8,0.3-1.2,0.3c-0.4,0-0.8-0.1-1.1-0.3c-0.3-0.2-0.6-0.4-0.8-0.8c-0.2-0.3-0.3-0.7-0.3-1.1
			C109.5,47.1,109.6,46.7,109.8,46.4z"/>
		<path class="st0" d="M117.6,48.2H115c0,0.3,0.1,0.5,0.3,0.7c0.2,0.2,0.4,0.2,0.7,0.2c0.4,0,0.6-0.2,0.8-0.5h0.8
			c-0.1,0.3-0.3,0.6-0.6,0.8c-0.3,0.2-0.6,0.3-1,0.3c-0.3,0-0.6-0.1-0.9-0.2s-0.5-0.4-0.6-0.6s-0.2-0.6-0.2-0.9
			c0-0.4,0.1-0.7,0.2-0.9s0.3-0.5,0.6-0.6c0.3-0.1,0.6-0.2,0.9-0.2s0.6,0.1,0.9,0.2s0.4,0.3,0.6,0.6s0.2,0.5,0.2,0.9
			C117.7,48,117.7,48.1,117.6,48.2z M116.9,47.6c0-0.3-0.1-0.5-0.3-0.6c-0.2-0.2-0.4-0.2-0.7-0.2c-0.2,0-0.5,0.1-0.6,0.2
			c-0.2,0.2-0.3,0.4-0.3,0.6H116.9z"/>
		<path class="st0" d="M120.8,46.3c0.2,0.1,0.4,0.3,0.5,0.5s0.2,0.5,0.2,0.8v2h-0.7v-1.9c0-0.3-0.1-0.5-0.2-0.7
			c-0.2-0.2-0.4-0.2-0.6-0.2c-0.3,0-0.5,0.1-0.6,0.2c-0.2,0.2-0.2,0.4-0.2,0.7v1.9h-0.7v-3.4h0.7v0.4c0.1-0.1,0.3-0.3,0.4-0.3
			c0.2-0.1,0.4-0.1,0.6-0.1C120.3,46.2,120.6,46.2,120.8,46.3z"/>
		<path class="st0" d="M123.2,46.8v1.9c0,0.1,0,0.2,0.1,0.3s0.2,0.1,0.3,0.1h0.4v0.6h-0.6c-0.3,0-0.6-0.1-0.7-0.2
			c-0.2-0.1-0.3-0.4-0.3-0.7v-1.9H122v-0.6h0.4v-0.8h0.7v0.8h0.8v0.6L123.2,46.8L123.2,46.8z"/>
		<path class="st0" d="M125.8,46.3c0.2-0.1,0.4-0.1,0.6-0.1v0.7h-0.2c-0.3,0-0.5,0.1-0.6,0.2s-0.2,0.4-0.2,0.7v1.8h-0.7v-3.4h0.7
			v0.5C125.5,46.6,125.6,46.4,125.8,46.3z"/>
		<path class="st0" d="M130.2,48.2h-2.6c0,0.3,0.1,0.5,0.3,0.7s0.4,0.2,0.7,0.2c0.4,0,0.6-0.2,0.8-0.5h0.8c-0.1,0.3-0.3,0.6-0.6,0.8
			s-0.6,0.3-1,0.3c-0.3,0-0.6-0.1-0.9-0.2s-0.5-0.4-0.6-0.6s-0.2-0.6-0.2-0.9c0-0.4,0.1-0.7,0.2-0.9s0.3-0.5,0.6-0.6
			s0.6-0.2,0.9-0.2s0.6,0.1,0.9,0.2s0.4,0.3,0.6,0.6s0.2,0.5,0.2,0.9C130.2,48,130.2,48.1,130.2,48.2z M129.5,47.6
			c0-0.3-0.1-0.5-0.3-0.6c-0.2-0.2-0.4-0.2-0.7-0.2c-0.2,0-0.5,0.1-0.6,0.2c-0.2,0.2-0.3,0.4-0.3,0.6H129.5z"/>
		<path class="st0" d="M133.9,46.8h-0.6v2.8h-0.7v-2.8h-0.4v-0.6h0.4V46c0-0.4,0.1-0.7,0.3-0.9s0.5-0.3,1-0.3v0.6
			c-0.2,0-0.4,0-0.5,0.1s-0.1,0.2-0.1,0.4v0.2h0.6V46.8z"/>
		<path class="st0" d="M135.2,49.5c-0.3-0.1-0.5-0.4-0.6-0.6c-0.1-0.3-0.2-0.6-0.2-0.9c0-0.3,0.1-0.7,0.2-0.9
			c0.2-0.3,0.4-0.5,0.6-0.6s0.6-0.2,0.9-0.2c0.3,0,0.6,0.1,0.9,0.2s0.5,0.4,0.6,0.6c0.2,0.3,0.2,0.6,0.2,0.9c0,0.3-0.1,0.7-0.2,0.9
			c-0.2,0.3-0.4,0.5-0.6,0.6s-0.6,0.2-0.9,0.2C135.7,49.7,135.4,49.6,135.2,49.5z M136.5,49c0.2-0.1,0.3-0.2,0.4-0.4
			c0.1-0.2,0.1-0.4,0.1-0.6c0-0.2,0-0.5-0.1-0.6c-0.1-0.2-0.2-0.3-0.4-0.4s-0.3-0.1-0.5-0.1s-0.4,0-0.5,0.1
			c-0.2,0.1-0.3,0.2-0.4,0.4c-0.1,0.2-0.1,0.4-0.1,0.6c0,0.4,0.1,0.7,0.3,0.9s0.4,0.3,0.7,0.3C136.2,49.1,136.4,49,136.5,49z"/>
		<path class="st0" d="M139.6,46.3c0.2-0.1,0.4-0.1,0.6-0.1v0.7H140c-0.3,0-0.5,0.1-0.6,0.2s-0.2,0.4-0.2,0.7v1.8h-0.7v-3.4h0.7v0.5
			C139.3,46.6,139.5,46.4,139.6,46.3z"/>
		<path class="st0" d="M60.3,50.8v0.6h-1.8v1.3h1.4v0.6h-1.4v1.9h-0.7v-4.3L60.3,50.8L60.3,50.8z"/>
		<path class="st0" d="M61,51.1c-0.1-0.1-0.1-0.2-0.1-0.3s0-0.2,0.1-0.3s0.2-0.1,0.3-0.1s0.2,0,0.3,0.1s0.1,0.2,0.1,0.3
			s0,0.2-0.1,0.3s-0.2,0.1-0.3,0.1C61.2,51.2,61.1,51.2,61,51.1z M61.6,51.7v3.4h-0.7v-3.4H61.6z"/>
		<path class="st0" d="M65,51.8c0.2,0.1,0.4,0.3,0.5,0.5s0.2,0.5,0.2,0.8v2H65v-1.9c0-0.3-0.1-0.5-0.2-0.7s-0.4-0.2-0.6-0.2
			c-0.3,0-0.5,0.1-0.6,0.2c-0.2,0.2-0.2,0.4-0.2,0.7v1.9h-0.7v-3.4h0.7V52c0.1-0.1,0.3-0.3,0.4-0.3c0.2-0.1,0.4-0.1,0.6-0.1
			C64.6,51.6,64.8,51.7,65,51.8z"/>
		<path class="st0" d="M66.6,52.4c0.1-0.3,0.3-0.5,0.6-0.6c0.2-0.1,0.5-0.2,0.8-0.2s0.5,0.1,0.7,0.2s0.4,0.2,0.5,0.4v-0.5h0.7v3.4
			h-0.7v-0.5c-0.1,0.2-0.3,0.3-0.5,0.4s-0.4,0.2-0.7,0.2c-0.3,0-0.6-0.1-0.8-0.2c-0.2-0.2-0.4-0.4-0.6-0.6c-0.1-0.3-0.2-0.6-0.2-0.9
			S66.4,52.7,66.6,52.4z M69,52.7c-0.1-0.2-0.2-0.3-0.4-0.4c-0.2-0.1-0.3-0.1-0.5-0.1s-0.4,0-0.5,0.1c-0.2,0.1-0.3,0.2-0.4,0.4
			s-0.1,0.4-0.1,0.6s0,0.4,0.1,0.6c0.1,0.2,0.2,0.3,0.4,0.4c0.2,0.1,0.3,0.1,0.5,0.1s0.4,0,0.5-0.1c0.2-0.1,0.3-0.2,0.4-0.4
			s0.1-0.4,0.1-0.6C69.2,53.1,69.1,52.9,69,52.7z"/>
		<path class="st0" d="M73.2,51.8c0.2,0.1,0.4,0.3,0.5,0.5s0.2,0.5,0.2,0.8v2h-0.7v-1.9c0-0.3-0.1-0.5-0.2-0.7s-0.4-0.2-0.6-0.2
			c-0.3,0-0.5,0.1-0.6,0.2c-0.2,0.2-0.2,0.4-0.2,0.7v1.9h-0.7v-3.4h0.7V52c0.1-0.1,0.3-0.3,0.4-0.3c0.2-0.1,0.4-0.1,0.6-0.1
			C72.8,51.6,73,51.7,73.2,51.8z"/>
		<path class="st0" d="M74.8,52.4c0.1-0.3,0.3-0.5,0.6-0.6c0.3-0.1,0.5-0.2,0.9-0.2s0.8,0.1,1,0.3s0.5,0.5,0.5,0.8H77
			c-0.1-0.2-0.2-0.3-0.3-0.4c-0.1-0.1-0.3-0.1-0.5-0.1c-0.3,0-0.5,0.1-0.7,0.3s-0.3,0.5-0.3,0.9s0.1,0.7,0.3,0.9
			c0.2,0.2,0.4,0.3,0.7,0.3c0.4,0,0.7-0.2,0.8-0.5h0.8c-0.1,0.3-0.3,0.6-0.6,0.8s-0.6,0.3-1,0.3c-0.3,0-0.6-0.1-0.9-0.2
			c-0.3-0.1-0.4-0.4-0.6-0.6c-0.1-0.3-0.2-0.6-0.2-0.9C74.6,53,74.7,52.7,74.8,52.4z"/>
		<path class="st0" d="M78.6,51.1c-0.1-0.1-0.1-0.2-0.1-0.3s0-0.2,0.1-0.3s0.2-0.1,0.3-0.1c0.1,0,0.2,0,0.3,0.1
			c0.1,0.1,0.1,0.2,0.1,0.3s0,0.2-0.1,0.3s-0.2,0.1-0.3,0.1C78.8,51.2,78.7,51.2,78.6,51.1z M79.2,51.7v3.4h-0.7v-3.4H79.2z"/>
		<path class="st0" d="M80.2,52.4c0.1-0.3,0.3-0.5,0.6-0.6c0.2-0.1,0.5-0.2,0.8-0.2s0.5,0.1,0.7,0.2s0.4,0.2,0.5,0.4v-0.5h0.7v3.4
			h-0.7v-0.5c-0.1,0.2-0.3,0.3-0.5,0.4s-0.4,0.2-0.7,0.2c-0.3,0-0.6-0.1-0.8-0.2c-0.2-0.2-0.4-0.4-0.6-0.6c-0.1-0.3-0.2-0.6-0.2-0.9
			S80,52.7,80.2,52.4z M82.6,52.7c-0.1-0.2-0.2-0.3-0.4-0.4c-0.2-0.1-0.3-0.1-0.5-0.1s-0.4,0-0.5,0.1c-0.2,0.1-0.3,0.2-0.4,0.4
			s-0.1,0.4-0.1,0.6s0,0.4,0.1,0.6c0.1,0.2,0.2,0.3,0.4,0.4c0.2,0.1,0.3,0.1,0.5,0.1s0.4,0,0.5-0.1c0.2-0.1,0.3-0.2,0.4-0.4
			s0.1-0.4,0.1-0.6C82.7,53.1,82.7,52.9,82.6,52.7z"/>
		<path class="st0" d="M85.1,50.5v4.6h-0.7v-4.6H85.1z"/>
		<path class="st0" d="M88.3,55c-0.2-0.1-0.4-0.2-0.5-0.4s-0.2-0.4-0.2-0.7h0.8c0,0.2,0.1,0.3,0.2,0.5c0.1,0.1,0.3,0.2,0.5,0.2
			s0.4-0.1,0.6-0.2c0.1-0.1,0.2-0.3,0.2-0.5c0-0.1,0-0.3-0.1-0.4c-0.1-0.1-0.2-0.2-0.3-0.2c-0.1,0-0.3-0.1-0.5-0.2
			c-0.3-0.1-0.5-0.1-0.7-0.2c-0.2-0.1-0.3-0.2-0.4-0.4s-0.2-0.4-0.2-0.6c0-0.2,0.1-0.5,0.2-0.7s0.3-0.3,0.5-0.4
			c0.2-0.1,0.5-0.1,0.8-0.1c0.4,0,0.8,0.1,1,0.3c0.3,0.2,0.4,0.5,0.4,0.9h-0.8c0-0.2-0.1-0.3-0.2-0.4c-0.1-0.1-0.3-0.2-0.5-0.2
			s-0.4,0.1-0.5,0.2c-0.1,0.1-0.2,0.3-0.2,0.4c0,0.1,0,0.2,0.1,0.3s0.2,0.2,0.3,0.2c0.1,0,0.3,0.1,0.5,0.2c0.3,0.1,0.5,0.2,0.7,0.2
			s0.3,0.2,0.5,0.4c0.1,0.2,0.2,0.4,0.2,0.7c0,0.2-0.1,0.4-0.2,0.6c-0.1,0.2-0.3,0.4-0.5,0.5s-0.5,0.2-0.8,0.2
			C88.8,55.1,88.5,55.1,88.3,55z"/>
		<path class="st0" d="M94.4,51.7l-2.1,5h-0.7l0.7-1.7L91,51.7h0.8l1,2.6l1-2.6H94.4z"/>
		<path class="st0" d="M95.5,55c-0.2-0.1-0.4-0.2-0.5-0.4s-0.2-0.4-0.2-0.6h0.7c0,0.1,0.1,0.3,0.2,0.4c0.1,0.1,0.3,0.1,0.5,0.1
			s0.4,0,0.5-0.1s0.2-0.2,0.2-0.3s-0.1-0.2-0.2-0.3s-0.3-0.1-0.6-0.2c-0.3-0.1-0.5-0.1-0.6-0.2c-0.2-0.1-0.3-0.2-0.4-0.3
			s-0.2-0.3-0.2-0.5s0.1-0.3,0.2-0.5s0.3-0.3,0.5-0.4c0.2-0.1,0.4-0.1,0.7-0.1c0.4,0,0.7,0.1,0.9,0.3c0.2,0.2,0.4,0.5,0.4,0.8h-0.7
			c0-0.2-0.1-0.3-0.2-0.4c-0.1-0.1-0.3-0.1-0.5-0.1s-0.3,0-0.4,0.1s-0.1,0.2-0.1,0.3s0,0.2,0.1,0.2c0.1,0.1,0.1,0.1,0.2,0.1
			s0.2,0.1,0.4,0.1c0.2,0.1,0.5,0.1,0.6,0.2c0.2,0.1,0.3,0.2,0.4,0.3s0.2,0.3,0.2,0.5s-0.1,0.4-0.2,0.5c-0.1,0.2-0.3,0.3-0.5,0.4
			C96.7,55,96.5,55,96.2,55C95.9,55.1,95.7,55.1,95.5,55z"/>
		<path class="st0" d="M99.1,52.2v1.9c0,0.1,0,0.2,0.1,0.3s0.2,0.1,0.3,0.1h0.4v0.6h-0.6c-0.3,0-0.6-0.1-0.7-0.2
			c-0.2-0.1-0.3-0.4-0.3-0.7v-1.9H98v-0.6h0.4v-0.8h0.7v0.8h0.8v0.6L99.1,52.2L99.1,52.2z"/>
		<path class="st0" d="M103.7,53.6h-2.6c0,0.3,0.1,0.5,0.3,0.7c0.2,0.2,0.4,0.2,0.7,0.2c0.4,0,0.6-0.2,0.8-0.5h0.8
			c-0.1,0.3-0.3,0.6-0.6,0.8c-0.3,0.2-0.6,0.3-1,0.3c-0.3,0-0.6-0.1-0.9-0.2c-0.3-0.1-0.5-0.4-0.6-0.6s-0.2-0.6-0.2-0.9
			c0-0.4,0.1-0.7,0.2-0.9c0.1-0.3,0.3-0.5,0.6-0.6c0.3-0.1,0.6-0.2,0.9-0.2s0.6,0.1,0.9,0.2s0.4,0.3,0.6,0.6s0.2,0.5,0.2,0.9
			C103.7,53.4,103.7,53.5,103.7,53.6z M103,53.1c0-0.3-0.1-0.5-0.3-0.6c-0.2-0.2-0.4-0.2-0.7-0.2c-0.2,0-0.5,0.1-0.6,0.2
			c-0.2,0.2-0.3,0.4-0.3,0.6H103z"/>
		<path class="st0" d="M109.3,51.8c0.2,0.1,0.4,0.3,0.5,0.5s0.2,0.5,0.2,0.8v2h-0.7v-1.9c0-0.3-0.1-0.5-0.2-0.7
			c-0.2-0.2-0.4-0.2-0.6-0.2c-0.3,0-0.5,0.1-0.6,0.2c-0.2,0.2-0.2,0.4-0.2,0.7v1.9H107v-1.9c0-0.3-0.1-0.5-0.2-0.7
			c-0.2-0.2-0.4-0.2-0.6-0.2c-0.3,0-0.5,0.1-0.6,0.2c-0.2,0.2-0.2,0.4-0.2,0.7v1.9h-0.7v-3.4h0.7V52c0.1-0.1,0.3-0.3,0.4-0.3
			c0.2-0.1,0.4-0.1,0.6-0.1c0.3,0,0.5,0.1,0.7,0.2s0.4,0.3,0.5,0.5c0.1-0.2,0.3-0.4,0.5-0.5s0.5-0.2,0.7-0.2
			C108.8,51.6,109.1,51.7,109.3,51.8z"/>
		<path class="st0" d="M111.4,55c-0.2-0.1-0.4-0.2-0.5-0.4s-0.2-0.4-0.2-0.6h0.7c0,0.1,0.1,0.3,0.2,0.4c0.1,0.1,0.3,0.1,0.5,0.1
			s0.4,0,0.5-0.1s0.2-0.2,0.2-0.3s-0.1-0.2-0.2-0.3s-0.3-0.1-0.6-0.2c-0.3-0.1-0.5-0.1-0.6-0.2c-0.2-0.1-0.3-0.2-0.4-0.3
			s-0.2-0.3-0.2-0.5s0.1-0.3,0.2-0.5s0.3-0.3,0.5-0.4c0.2-0.1,0.4-0.1,0.7-0.1c0.4,0,0.7,0.1,0.9,0.3c0.2,0.2,0.4,0.5,0.4,0.8h-0.7
			c0-0.2-0.1-0.3-0.2-0.4s-0.3-0.1-0.5-0.1s-0.3,0-0.4,0.1s-0.1,0.2-0.1,0.3s0,0.2,0.1,0.2c0.1,0.1,0.1,0.1,0.2,0.1s0.2,0.1,0.4,0.1
			c0.2,0.1,0.5,0.1,0.6,0.2c0.2,0.1,0.3,0.2,0.4,0.3s0.2,0.3,0.2,0.5s-0.1,0.4-0.2,0.5c-0.1,0.2-0.3,0.3-0.5,0.4s-0.4,0.1-0.7,0.1
			C111.8,55.1,111.6,55.1,111.4,55z"/>
		<path class="st0" d="M115.8,52.4c0.1-0.3,0.3-0.5,0.6-0.6c0.2-0.1,0.5-0.2,0.8-0.2s0.5,0.1,0.7,0.2s0.4,0.2,0.5,0.4v-0.5h0.7v3.4
			h-0.7v-0.5c-0.1,0.2-0.3,0.3-0.5,0.4c-0.2,0.1-0.4,0.2-0.7,0.2c-0.3,0-0.6-0.1-0.8-0.2c-0.2-0.2-0.4-0.4-0.6-0.6s-0.2-0.6-0.2-0.9
			S115.6,52.7,115.8,52.4z M118.2,52.7c-0.1-0.2-0.2-0.3-0.4-0.4c-0.2-0.1-0.3-0.1-0.5-0.1s-0.4,0-0.5,0.1c-0.2,0.1-0.3,0.2-0.4,0.4
			s-0.1,0.4-0.1,0.6s0,0.4,0.1,0.6c0.1,0.2,0.2,0.3,0.4,0.4s0.3,0.1,0.5,0.1s0.4,0,0.5-0.1c0.2-0.1,0.3-0.2,0.4-0.4s0.1-0.4,0.1-0.6
			C118.3,53.1,118.3,52.9,118.2,52.7z"/>
		<path class="st0" d="M122.4,51.8c0.2,0.1,0.4,0.3,0.5,0.5s0.2,0.5,0.2,0.8v2h-0.7v-1.9c0-0.3-0.1-0.5-0.2-0.7
			c-0.2-0.2-0.4-0.2-0.6-0.2c-0.3,0-0.5,0.1-0.6,0.2c-0.2,0.2-0.2,0.4-0.2,0.7v1.9H120v-3.4h0.7V52c0.1-0.1,0.3-0.3,0.4-0.3
			c0.2-0.1,0.4-0.1,0.6-0.1C122,51.6,122.2,51.7,122.4,51.8z"/>
		<path class="st0" d="M124,52.4c0.1-0.3,0.3-0.5,0.6-0.6c0.2-0.1,0.5-0.2,0.8-0.2c0.2,0,0.4,0,0.7,0.1c0.2,0.1,0.4,0.2,0.5,0.4
			v-1.6h0.7v4.6h-0.7v-0.5c-0.1,0.2-0.3,0.3-0.5,0.4s-0.4,0.2-0.7,0.2c-0.3,0-0.6-0.1-0.8-0.2c-0.2-0.2-0.4-0.4-0.6-0.6
			s-0.2-0.6-0.2-0.9S123.8,52.7,124,52.4z M126.4,52.7c-0.1-0.2-0.2-0.3-0.4-0.4c-0.2-0.1-0.3-0.1-0.5-0.1s-0.4,0-0.5,0.1
			c-0.2,0.1-0.3,0.2-0.4,0.4s-0.1,0.4-0.1,0.6s0,0.4,0.1,0.6c0.1,0.2,0.2,0.3,0.4,0.4s0.3,0.1,0.5,0.1s0.4,0,0.5-0.1
			c0.2-0.1,0.3-0.2,0.4-0.4s0.1-0.4,0.1-0.6C126.6,53.1,126.5,52.9,126.4,52.7z"/>
		<path class="st0" d="M130.4,55c-0.2-0.1-0.4-0.2-0.5-0.4s-0.2-0.4-0.2-0.7h0.8c0,0.2,0.1,0.3,0.2,0.5c0.1,0.1,0.3,0.2,0.5,0.2
			s0.4-0.1,0.6-0.2c0.1-0.1,0.2-0.3,0.2-0.5c0-0.1,0-0.3-0.1-0.4c-0.1-0.1-0.2-0.2-0.3-0.2s-0.3-0.1-0.5-0.2
			c-0.3-0.1-0.5-0.1-0.7-0.2s-0.3-0.2-0.4-0.4s-0.2-0.4-0.2-0.6c0-0.2,0.1-0.5,0.2-0.7c0.1-0.2,0.3-0.3,0.5-0.4
			c0.2-0.1,0.5-0.1,0.8-0.1c0.4,0,0.8,0.1,1,0.3s0.4,0.5,0.4,0.9h-0.8c0-0.2-0.1-0.3-0.2-0.4c-0.1-0.1-0.3-0.2-0.5-0.2
			s-0.4,0.1-0.5,0.2c-0.1,0.1-0.2,0.3-0.2,0.4c0,0.1,0,0.2,0.1,0.3s0.2,0.2,0.3,0.2s0.3,0.1,0.5,0.2c0.3,0.1,0.5,0.2,0.7,0.2
			s0.3,0.2,0.5,0.4c0.1,0.2,0.2,0.4,0.2,0.7c0,0.2-0.1,0.4-0.2,0.6c-0.1,0.2-0.3,0.4-0.5,0.5s-0.5,0.2-0.8,0.2
			C130.9,55.1,130.7,55.1,130.4,55z"/>
		<path class="st0" d="M136.7,53.6H134c0,0.3,0.1,0.5,0.3,0.7s0.4,0.2,0.7,0.2c0.4,0,0.6-0.2,0.8-0.5h0.8c-0.1,0.3-0.3,0.6-0.6,0.8
			s-0.6,0.3-1,0.3c-0.3,0-0.6-0.1-0.9-0.2s-0.5-0.4-0.6-0.6s-0.2-0.6-0.2-0.9c0-0.4,0.1-0.7,0.2-0.9s0.3-0.5,0.6-0.6
			s0.6-0.2,0.9-0.2c0.3,0,0.6,0.1,0.9,0.2s0.4,0.3,0.6,0.6s0.2,0.5,0.2,0.9C136.7,53.4,136.7,53.5,136.7,53.6z M135.9,53.1
			c0-0.3-0.1-0.5-0.3-0.6c-0.2-0.2-0.4-0.2-0.7-0.2c-0.2,0-0.5,0.1-0.6,0.2c-0.2,0.2-0.3,0.4-0.3,0.6H135.9z"/>
		<path class="st0" d="M138.5,51.7c0.2-0.1,0.4-0.1,0.6-0.1v0.7h-0.2c-0.3,0-0.5,0.1-0.6,0.2s-0.2,0.4-0.2,0.7V55h-0.7v-3.4h0.7v0.5
			C138.2,52,138.3,51.8,138.5,51.7z"/>
		<path class="st0" d="M141.1,54.4l1-2.8h0.8l-1.3,3.4h-0.8l-1.3-3.4h0.8L141.1,54.4z"/>
		<path class="st0" d="M143.4,51.1c-0.1-0.1-0.1-0.2-0.1-0.3s0-0.2,0.1-0.3s0.2-0.1,0.3-0.1s0.2,0,0.3,0.1s0.1,0.2,0.1,0.3
			s0,0.2-0.1,0.3s-0.2,0.1-0.3,0.1C143.6,51.2,143.5,51.2,143.4,51.1z M144,51.7v3.4h-0.7v-3.4H144z"/>
		<path class="st0" d="M144.9,52.4c0.1-0.3,0.3-0.5,0.6-0.6s0.5-0.2,0.9-0.2s0.8,0.1,1,0.3c0.3,0.2,0.5,0.5,0.5,0.8h-0.8
			c-0.1-0.2-0.2-0.3-0.3-0.4c-0.1-0.1-0.3-0.1-0.5-0.1c-0.3,0-0.5,0.1-0.7,0.3s-0.3,0.5-0.3,0.9s0.1,0.7,0.3,0.9s0.4,0.3,0.7,0.3
			c0.4,0,0.7-0.2,0.8-0.5h0.8c-0.1,0.3-0.3,0.6-0.6,0.8s-0.6,0.3-1,0.3c-0.3,0-0.6-0.1-0.9-0.2s-0.4-0.4-0.6-0.6s-0.2-0.6-0.2-0.9
			C144.7,53,144.8,52.7,144.9,52.4z"/>
		<path class="st0" d="M151.8,53.6h-2.6c0,0.3,0.1,0.5,0.3,0.7s0.4,0.2,0.7,0.2c0.4,0,0.6-0.2,0.8-0.5h0.8c-0.1,0.3-0.3,0.6-0.6,0.8
			s-0.6,0.3-1,0.3c-0.3,0-0.6-0.1-0.9-0.2s-0.5-0.4-0.6-0.6s-0.2-0.6-0.2-0.9c0-0.4,0.1-0.7,0.2-0.9s0.3-0.5,0.6-0.6
			s0.6-0.2,0.9-0.2c0.3,0,0.6,0.1,0.9,0.2s0.4,0.3,0.6,0.6s0.2,0.5,0.2,0.9C151.8,53.4,151.8,53.5,151.8,53.6z M151.1,53.1
			c0-0.3-0.1-0.5-0.3-0.6c-0.2-0.2-0.4-0.2-0.7-0.2c-0.2,0-0.5,0.1-0.6,0.2c-0.2,0.2-0.3,0.4-0.3,0.6H151.1z"/>
		<path class="st0" d="M153,55c-0.2-0.1-0.4-0.2-0.5-0.4s-0.2-0.4-0.2-0.6h0.7c0,0.1,0.1,0.3,0.2,0.4c0.1,0.1,0.3,0.1,0.5,0.1
			s0.4,0,0.5-0.1s0.2-0.2,0.2-0.3s-0.1-0.2-0.2-0.3c-0.1-0.1-0.3-0.1-0.6-0.2c-0.3-0.1-0.5-0.1-0.6-0.2c-0.2-0.1-0.3-0.2-0.4-0.3
			c-0.1-0.1-0.2-0.3-0.2-0.5s0.1-0.3,0.2-0.5c0.1-0.2,0.3-0.3,0.5-0.4c0.2-0.1,0.4-0.1,0.7-0.1c0.4,0,0.7,0.1,0.9,0.3
			s0.4,0.5,0.4,0.8h-0.7c0-0.2-0.1-0.3-0.2-0.4s-0.3-0.1-0.5-0.1s-0.3,0-0.4,0.1c-0.1,0.1-0.1,0.2-0.1,0.3s0,0.2,0.1,0.2
			c0.1,0.1,0.1,0.1,0.2,0.1c0.1,0,0.2,0.1,0.4,0.1c0.2,0.1,0.5,0.1,0.6,0.2c0.2,0.1,0.3,0.2,0.4,0.3c0.1,0.1,0.2,0.3,0.2,0.5
			s-0.1,0.4-0.2,0.5c-0.1,0.2-0.3,0.3-0.5,0.4S154,55,153.7,55C153.5,55.1,153.2,55.1,153,55z"/>
	</g>
</g>
</svg>
